#define storm_icon_width 16
#define storm_icon_height 16
static unsigned char storm_icon_bits[] = {
   0xe0, 0x07, 0xf0, 0x0f, 0xfe, 0x7f, 0xff, 0xff, 0xff, 0xff, 0xff, 0xff,
   0xff, 0xff, 0xff, 0xff, 0xfe, 0x7f, 0xe0, 0x07, 0xc0, 0x00, 0xc0, 0x01,
   0x80, 0x01, 0xc0, 0x00, 0x40, 0x00, 0x00, 0x00 };
